<svg xmlns="http://www.w3.org/2000/svg" width="25" height="25" fill="none" viewBox="0 0 25 25">
  <path fill="currentColor" fill-rule="evenodd" d="M8.318.27h8.978c4.131 0 7.482 3.358 7.482 7.5v9c0 4.141-3.35 7.5-7.482 7.5H8.318c-4.132 0-7.482-3.359-7.482-7.5v-9c0-4.142 3.35-7.5 7.482-7.5Zm8.978 21.75c2.888 0 5.237-2.355 5.237-5.25v-9c0-2.895-2.35-5.25-5.237-5.25H8.318C5.43 2.52 3.08 4.875 3.08 7.77v9c0 2.895 2.35 5.25 5.238 5.25h8.978Z" clip-rule="evenodd"/>
  <path fill="currentColor" fill-rule="evenodd" d="M6.82 12.27c0-3.314 2.68-6 5.986-6 3.305 0 5.985 2.686 5.985 6 0 3.313-2.68 6-5.985 6-3.306 0-5.986-2.687-5.986-6Zm2.245 0a3.75 3.75 0 0 0 3.74 3.75 3.75 3.75 0 0 0 0-7.5 3.75 3.75 0 0 0-3.74 3.75Z" clip-rule="evenodd"/>
  <ellipse cx="19.251" cy="5.823" fill="currentColor" rx=".798" ry=".799"/>
</svg>
