<svg xmlns="http://www.w3.org/2000/svg" width="25" height="20" fill="none" viewBox="0 0 25 20">
  <path fill="currentColor" d="M24.317 2.758c-.89.391-1.84.65-2.828.777a4.89 4.89 0 0 0 2.159-2.72 9.794 9.794 0 0 1-3.113 1.191A4.913 4.913 0 0 0 16.95.45c-2.717 0-4.905 2.211-4.905 4.922 0 .39.033.765.114 1.122-4.08-.2-7.691-2.16-10.117-5.147A4.93 4.93 0 0 0 3.55 7.922a4.838 4.838 0 0 1-2.217-.606v.054a4.94 4.94 0 0 0 3.932 4.835c-.4.11-.835.162-1.287.162a4.33 4.33 0 0 1-.929-.084c.636 1.948 2.44 3.38 4.586 3.427a9.847 9.847 0 0 1-6.085 2.1 9.08 9.08 0 0 1-1.175-.068 13.794 13.794 0 0 0 7.53 2.208c9.032 0 13.97-7.5 13.97-14 0-.218-.008-.428-.018-.637a9.806 9.806 0 0 0 2.46-2.554Z"/>
</svg>
